<svg width="342" height="584" viewBox="0 0 342 584" fill="none" xmlns="http://www.w3.org/2000/svg">
<path d="M291.707 194.971C305.063 194.971 315.891 205.798 315.891 219.155" stroke="#FAF8F4" stroke-width="3" stroke-miterlimit="10"></path>
<path d="M74.052 340.074C87.408 340.074 98.236 350.902 98.236 364.258" stroke="#FAF8F4" stroke-width="3" stroke-miterlimit="10"></path>
<path d="M267.523 219.155C280.879 219.155 291.707 229.983 291.707 243.339" stroke="#FAF8F4" stroke-width="3" stroke-miterlimit="10"></path>
<path d="M194.971 388.442C208.327 388.442 219.155 399.27 219.155 412.626" stroke="#FAF8F4" stroke-width="3" stroke-miterlimit="10"></path>
<path d="M25.6841 219.155C25.6841 205.799 36.5111 194.971 49.8681 194.971" stroke="#FAF8F4" stroke-width="3" stroke-miterlimit="10"></path>
<path d="M243.339 364.258C243.339 350.902 254.166 340.074 267.523 340.074" stroke="#FAF8F4" stroke-width="3" stroke-miterlimit="10"></path>
<path d="M49.8679 243.339C49.8679 229.983 60.6949 219.155 74.0519 219.155" stroke="#FAF8F4" stroke-width="3" stroke-miterlimit="10"></path>
<path d="M122.42 412.626C122.42 399.27 133.247 388.442 146.604 388.442" stroke="#FAF8F4" stroke-width="3" stroke-miterlimit="10"></path>
<path d="M194.971 98.2358C181.615 98.2358 170.787 87.4078 170.787 74.0518" stroke="#FAF8F4" stroke-width="3" stroke-miterlimit="10"></path>
<path d="M267.523 194.971C254.167 194.971 243.339 184.143 243.339 170.787" stroke="#FAF8F4" stroke-width="3" stroke-miterlimit="10"></path>
<path d="M74.0519 557.729C60.6959 557.729 49.8679 546.901 49.8679 533.545" stroke="#FAF8F4" stroke-width="3" stroke-miterlimit="10"></path>
<path d="M194.971 557.729C181.615 557.729 170.787 546.901 170.787 533.545" stroke="#FAF8F4" stroke-width="3" stroke-miterlimit="10"></path>
<path d="M74.0519 291.706C60.6959 291.706 49.8679 280.879 49.8679 267.522" stroke="#FAF8F4" stroke-width="3" stroke-miterlimit="10"></path>
<path d="M146.604 340.074C133.248 340.074 122.42 329.247 122.42 315.89" stroke="#FAF8F4" stroke-width="3" stroke-miterlimit="10"></path>
<path d="M170.787 74.0518C170.787 87.4078 159.96 98.2358 146.603 98.2358" stroke="#FAF8F4" stroke-width="3" stroke-miterlimit="10"></path>
<path d="M98.236 170.787C98.236 184.143 87.409 194.971 74.052 194.971" stroke="#FAF8F4" stroke-width="3" stroke-miterlimit="10"></path>
<path d="M291.707 533.545C291.707 546.901 280.88 557.729 267.523 557.729" stroke="#FAF8F4" stroke-width="3" stroke-miterlimit="10"></path>
<path d="M170.787 533.545C170.787 546.901 159.96 557.729 146.603 557.729" stroke="#FAF8F4" stroke-width="3" stroke-miterlimit="10"></path>
<path d="M291.707 267.523C291.707 280.879 280.88 291.707 267.523 291.707" stroke="#FAF8F4" stroke-width="3" stroke-miterlimit="10"></path>
<path d="M219.155 315.89C219.155 329.246 208.328 340.074 194.971 340.074" stroke="#FAF8F4" stroke-width="3" stroke-miterlimit="10"></path>
<path d="M146.604 509.361C133.248 509.361 122.42 498.533 122.42 485.177" stroke="#FAF8F4" stroke-width="3" stroke-miterlimit="10"></path>
<path d="M219.155 485.177C219.155 498.533 208.328 509.361 194.971 509.361" stroke="#FAF8F4" stroke-width="3" stroke-miterlimit="10"></path>
<path d="M146.604 509.36H194.971" stroke="#FAF8F4" stroke-width="3" stroke-miterlimit="10"></path>
<path d="M267.523 194.971H291.707" stroke="#FAF8F4" stroke-width="3" stroke-miterlimit="10"></path>
<path d="M49.8679 194.971H74.0519" stroke="#FAF8F4" stroke-width="3" stroke-miterlimit="10"></path>
<path d="M146.604 340.074H194.971" stroke="#FAF8F4" stroke-width="3" stroke-miterlimit="10"></path>
<path d="M146.604 219.155H194.971" stroke="#FAF8F4" stroke-width="3" stroke-miterlimit="10"></path>
<path d="M243.339 557.729H267.523" stroke="#FAF8F4" stroke-width="3" stroke-miterlimit="10"></path>
<path d="M219.155 460.993H267.523" stroke="#FAF8F4" stroke-width="3" stroke-miterlimit="10"></path>
<path d="M267.523 340.074H291.707" stroke="#FAF8F4" stroke-width="3" stroke-miterlimit="10"></path>
<path d="M49.8679 340.074H74.0519" stroke="#FAF8F4" stroke-width="3" stroke-miterlimit="10"></path>
<path d="M74.052 460.993H122.42" stroke="#FAF8F4" stroke-width="3" stroke-miterlimit="10"></path>
<path d="M74.052 557.729H98.236" stroke="#FAF8F4" stroke-width="3" stroke-miterlimit="10"></path>
<path d="M243.339 291.706H267.523" stroke="#FAF8F4" stroke-width="3" stroke-miterlimit="10"></path>
<path d="M243.339 219.155H267.523" stroke="#FAF8F4" stroke-width="3" stroke-miterlimit="10"></path>
<path d="M74.052 219.155H98.236" stroke="#FAF8F4" stroke-width="3" stroke-miterlimit="10"></path>
<path d="M74.052 291.706H98.236" stroke="#FAF8F4" stroke-width="3" stroke-miterlimit="10"></path>
<path d="M122.42 98.2358H146.604" stroke="#FAF8F4" stroke-width="3" stroke-miterlimit="10"></path>
<path d="M194.971 98.2358H219.155" stroke="#FAF8F4" stroke-width="3" stroke-miterlimit="10"></path>
<path d="M219.155 412.626V485.177" stroke="#FAF8F4" stroke-width="3" stroke-miterlimit="10"></path>
<path d="M291.707 243.339V267.523" stroke="#FAF8F4" stroke-width="3" stroke-miterlimit="10"></path>
<path d="M49.8679 243.339V267.523" stroke="#FAF8F4" stroke-width="3" stroke-miterlimit="10"></path>
<path d="M122.42 412.626V485.177" stroke="#FAF8F4" stroke-width="3" stroke-miterlimit="10"></path>
<path d="M170.787 485.177V509.361" stroke="#FAF8F4" stroke-width="3" stroke-miterlimit="10"></path>
<path d="M170.787 340.074V364.258" stroke="#FAF8F4" stroke-width="3" stroke-miterlimit="10"></path>
<path d="M170.787 49.8677V74.0518" stroke="#FAF8F4" stroke-width="3" stroke-miterlimit="10"></path>
<path d="M170.787 170.787V219.155" stroke="#FAF8F4" stroke-width="3" stroke-miterlimit="10"></path>
<path d="M170.787 509.36V533.544" stroke="#FAF8F4" stroke-width="3" stroke-miterlimit="10"></path>
<path d="M243.339 364.258V460.993" stroke="#FAF8F4" stroke-width="3" stroke-miterlimit="10"></path>
<path d="M243.339 122.42V170.787" stroke="#FAF8F4" stroke-width="3" stroke-miterlimit="10"></path>
<path d="M98.2361 122.42V170.787" stroke="#FAF8F4" stroke-width="3" stroke-miterlimit="10"></path>
<path d="M315.89 219.155V315.89" stroke="#FAF8F4" stroke-width="3" stroke-miterlimit="10"></path>
<path d="M25.6841 219.155V315.89" stroke="#FAF8F4" stroke-width="3" stroke-miterlimit="10"></path>
<path d="M98.2361 364.258V460.993" stroke="#FAF8F4" stroke-width="3" stroke-miterlimit="10"></path>
<path d="M291.707 485.177V533.545" stroke="#FAF8F4" stroke-width="3" stroke-miterlimit="10"></path>
<path d="M49.8679 485.177V533.545" stroke="#FAF8F4" stroke-width="3" stroke-miterlimit="10"></path>
<path d="M170.787 485.177C184.143 485.177 194.971 474.349 194.971 460.993C194.971 447.636 184.143 436.809 170.787 436.809C157.431 436.809 146.603 447.636 146.603 460.993C146.603 474.349 157.431 485.177 170.787 485.177Z" stroke="#FAF8F4" stroke-width="3" stroke-miterlimit="10"></path>
<path d="M122.42 581.913C135.777 581.913 146.604 571.085 146.604 557.729C146.604 544.373 135.777 533.545 122.42 533.545C109.064 533.545 98.2361 544.373 98.2361 557.729C98.2361 571.085 109.064 581.913 122.42 581.913Z" stroke="#FAF8F4" stroke-width="3" stroke-miterlimit="10"></path>
<path d="M49.8681 485.177C63.2245 485.177 74.0521 474.349 74.0521 460.993C74.0521 447.636 63.2245 436.809 49.8681 436.809C36.5116 436.809 25.6841 447.636 25.6841 460.993C25.6841 474.349 36.5116 485.177 49.8681 485.177Z" stroke="#FAF8F4" stroke-width="3" stroke-miterlimit="10"></path>
<path d="M219.155 581.913C232.511 581.913 243.339 571.085 243.339 557.729C243.339 544.373 232.511 533.545 219.155 533.545C205.798 533.545 194.971 544.373 194.971 557.729C194.971 571.085 205.798 581.913 219.155 581.913Z" stroke="#FAF8F4" stroke-width="3" stroke-miterlimit="10"></path>
<path d="M291.707 485.177C305.063 485.177 315.891 474.349 315.891 460.993C315.891 447.636 305.063 436.809 291.707 436.809C278.35 436.809 267.523 447.636 267.523 460.993C267.523 474.349 278.35 485.177 291.707 485.177Z" stroke="#FAF8F4" stroke-width="3" stroke-miterlimit="10"></path>
<path d="M25.684 364.258C39.0404 364.258 49.868 353.43 49.868 340.074C49.868 326.717 39.0404 315.89 25.684 315.89C12.3275 315.89 1.5 326.717 1.5 340.074C1.5 353.43 12.3275 364.258 25.684 364.258Z" stroke="#FAF8F4" stroke-width="3" stroke-miterlimit="10"></path>
<path d="M315.89 364.258C329.246 364.258 340.074 353.43 340.074 340.074C340.074 326.717 329.246 315.89 315.89 315.89C302.534 315.89 291.706 326.717 291.706 340.074C291.706 353.43 302.534 364.258 315.89 364.258Z" stroke="#FAF8F4" stroke-width="3" stroke-miterlimit="10"></path>
<path d="M219.155 243.339C232.511 243.339 243.339 232.511 243.339 219.155C243.339 205.798 232.511 194.971 219.155 194.971C205.798 194.971 194.971 205.798 194.971 219.155C194.971 232.511 205.798 243.339 219.155 243.339Z" stroke="#FAF8F4" stroke-width="3" stroke-miterlimit="10"></path>
<path d="M98.236 122.42C111.592 122.42 122.42 111.592 122.42 98.2358C122.42 84.8794 111.592 74.0518 98.236 74.0518C84.8795 74.0518 74.052 84.8794 74.052 98.2358C74.052 111.592 84.8795 122.42 98.236 122.42Z" stroke="#FAF8F4" stroke-width="3" stroke-miterlimit="10"></path>
<path d="M243.339 122.42C256.695 122.42 267.523 111.592 267.523 98.2358C267.523 84.8794 256.695 74.0518 243.339 74.0518C229.983 74.0518 219.155 84.8794 219.155 98.2358C219.155 111.592 229.983 122.42 243.339 122.42Z" stroke="#FAF8F4" stroke-width="3" stroke-miterlimit="10"></path>
<path d="M170.787 170.788C184.143 170.788 194.971 159.96 194.971 146.604C194.971 133.248 184.143 122.42 170.787 122.42C157.431 122.42 146.603 133.248 146.603 146.604C146.603 159.96 157.431 170.788 170.787 170.788Z" stroke="#FAF8F4" stroke-width="3" stroke-miterlimit="10"></path>
<path d="M170.787 49.8677C184.143 49.8677 194.971 39.04 194.971 25.6836C194.971 12.3271 184.143 1.5 170.787 1.5C157.431 1.5 146.603 12.3271 146.603 25.6836C146.603 39.04 157.431 49.8677 170.787 49.8677Z" stroke="#FAF8F4" stroke-width="3" stroke-miterlimit="10"></path>
<path d="M122.42 243.339C135.777 243.339 146.604 232.511 146.604 219.155C146.604 205.798 135.777 194.971 122.42 194.971C109.064 194.971 98.2361 205.798 98.2361 219.155C98.2361 232.511 109.064 243.339 122.42 243.339Z" stroke="#FAF8F4" stroke-width="3" stroke-miterlimit="10"></path>
<path d="M170.787 412.626C184.143 412.626 194.971 401.798 194.971 388.442C194.971 375.085 184.143 364.258 170.787 364.258C157.431 364.258 146.603 375.085 146.603 388.442C146.603 401.798 157.431 412.626 170.787 412.626Z" stroke="#FAF8F4" stroke-width="3" stroke-miterlimit="10"></path>
<path d="M122.42 315.89C135.777 315.89 146.604 305.062 146.604 291.706C146.604 278.349 135.777 267.522 122.42 267.522C109.064 267.522 98.2361 278.349 98.2361 291.706C98.2361 305.062 109.064 315.89 122.42 315.89Z" stroke="#FAF8F4" stroke-width="3" stroke-miterlimit="10"></path>
<path d="M219.155 315.89C232.511 315.89 243.339 305.062 243.339 291.706C243.339 278.349 232.511 267.522 219.155 267.522C205.798 267.522 194.971 278.349 194.971 291.706C194.971 305.062 205.798 315.89 219.155 315.89Z" stroke="#FAF8F4" stroke-width="3" stroke-miterlimit="10"></path>
</svg>