<svg width="587" height="587" viewBox="0 0 587 587" fill="none" xmlns="http://www.w3.org/2000/svg">
<g clip-path="url(#clip0_206_476)">
<path d="M152.909 410.947H132.822V468.34H152.909C158.201 468.34 160.846 465.584 160.846 460.072V419.039C160.846 413.637 158.201 410.947 152.909 410.947Z" fill="#4990E8"></path>
<path d="M293.493 292.897V146.757C293.493 65.7057 227.809 0 146.757 0C65.7057 0 0 65.7057 0 146.757V586.236H293.493V586.412H586.985V292.919H293.493V292.897ZM103.034 107.488C103.034 103.431 105.063 101.403 109.12 101.403H184.417C188.474 101.403 190.502 103.431 190.502 107.488V127.575C190.502 131.632 188.474 133.66 184.417 133.66H141.377V151.211H170.747C174.804 151.211 176.832 153.24 176.832 157.297V177.56C176.832 181.617 174.804 183.645 170.747 183.645H141.377V216.895C141.377 220.952 139.349 222.98 135.292 222.98H109.12C105.063 222.98 103.034 220.952 103.034 216.895V107.51V107.488ZM198.991 465.805C198.991 477.513 195.618 486.178 188.871 491.8C182.124 497.423 171.651 500.245 157.473 500.245H100.587C96.53 500.245 94.5015 498.216 94.5015 494.159V384.775C94.5015 380.718 96.53 378.689 100.587 378.689H157.473C171.651 378.689 182.124 381.512 188.871 387.134C195.618 392.757 198.991 401.422 198.991 413.13V465.805ZM487.435 470.699C487.435 480.269 484.326 487.611 478.152 492.726C471.956 497.842 463.401 500.399 452.487 500.399H399.151C395.094 500.399 393.065 498.371 393.065 494.314V474.558C393.065 470.501 395.094 468.473 399.151 468.473H444.572C446.027 468.473 447.129 467.987 447.857 467.039C448.584 466.091 448.959 464.923 448.959 463.578C448.959 461.659 448.584 460.27 447.857 459.366C447.129 458.462 446.027 457.955 444.572 457.845L419.259 454.295C411.388 453.06 405.038 450.437 400.275 446.446C395.491 442.455 393.109 435.73 393.109 426.271V408.544C393.109 398.864 396.196 391.5 402.392 386.429C408.588 381.357 417.143 378.822 428.057 378.822H475.33C479.387 378.822 481.415 380.85 481.415 384.907V404.994C481.415 409.051 479.387 411.079 475.33 411.079H435.995C432.952 411.079 431.43 412.777 431.43 416.151C431.43 419.524 432.952 421.222 435.995 421.553L461.152 424.926C466.444 425.72 471.052 427.087 474.999 429.071C478.946 431.034 482.011 433.944 484.193 437.758C486.398 441.595 487.479 446.644 487.479 452.95V470.677L487.435 470.699Z" fill="#4990E8"></path>
</g>
<defs>
<clipPath id="clip0_206_476">
<rect width="587.007" height="586.39" fill="white"></rect>
</clipPath>
</defs>
</svg>