<svg width="944" height="697" viewBox="0 0 944 697" fill="none" xmlns="http://www.w3.org/2000/svg">
<path d="M381.819 147.703L2.6481e-06 147.703" stroke="#FAF8F4" stroke-width="3" stroke-miterlimit="10"></path>
<path d="M553.707 98.5748C553.707 44.9622 597.169 1.5 650.782 1.5C704.395 1.5 747.857 44.9622 747.857 98.5748" stroke="#FAF8F4" stroke-width="3" stroke-miterlimit="10" stroke-linecap="round" stroke-linejoin="round"></path>
<path d="M747.854 98.5731C747.854 205.798 660.932 292.72 553.707 292.72" stroke="#FAF8F4" stroke-width="3" stroke-miterlimit="10" stroke-linecap="round" stroke-linejoin="round"></path>
<path d="M747.854 98.5731C747.854 205.798 704.392 292.72 650.779 292.72" stroke="#FAF8F4" stroke-width="3" stroke-miterlimit="10" stroke-linecap="round" stroke-linejoin="round"></path>
<path d="M747.854 98.5731C747.854 205.798 747.854 292.72 747.854 292.72" stroke="#FAF8F4" stroke-width="3" stroke-miterlimit="10" stroke-linecap="round" stroke-linejoin="round"></path>
<path d="M747.854 98.5731C747.854 205.798 791.316 292.72 844.929 292.72" stroke="#FAF8F4" stroke-width="3" stroke-miterlimit="10" stroke-linecap="round" stroke-linejoin="round"></path>
<path d="M747.854 98.5731C747.854 205.798 834.776 292.72 942.001 292.72" stroke="#FAF8F4" stroke-width="3" stroke-miterlimit="10" stroke-linecap="round" stroke-linejoin="round"></path>
<path d="M553.707 90.3672C558.239 90.3672 561.914 94.0418 561.914 98.5742C561.914 103.106 558.239 106.78 553.707 106.78C549.175 106.78 545.501 103.106 545.501 98.5742C545.501 94.042 549.175 90.3674 553.707 90.3672Z" fill="#FAF8F4" stroke="#FAF8F4" stroke-width="3"></path>
<path d="M476.619 377.902C476.619 362.879 488.798 350.7 503.821 350.7" stroke="#FAF8F4" stroke-width="3" stroke-miterlimit="10"></path>
<path d="M476.619 405.103C476.619 420.126 464.441 432.305 449.418 432.305" stroke="#FAF8F4" stroke-width="3" stroke-miterlimit="10"></path>
<path d="M258.996 432.305L340.604 432.305" stroke="#FAF8F4" stroke-width="3" stroke-miterlimit="10"></path>
<path d="M503.821 350.7L531.026 350.7" stroke="#FAF8F4" stroke-width="3" stroke-miterlimit="10"></path>
<path d="M585.433 350.7L612.634 350.7" stroke="#FAF8F4" stroke-width="3" stroke-miterlimit="10"></path>
<path d="M476.619 405.103L476.619 377.899" stroke="#FAF8F4" stroke-width="3" stroke-miterlimit="10"></path>
<path d="M367.81 377.902C367.81 362.879 379.988 350.7 395.011 350.7" stroke="#FAF8F4" stroke-width="3" stroke-miterlimit="10"></path>
<path d="M367.81 405.103C367.81 420.126 355.631 432.305 340.608 432.305" stroke="#FAF8F4" stroke-width="3" stroke-miterlimit="10"></path>
<path d="M449.418 432.305C434.395 432.305 422.216 420.126 422.216 405.103" stroke="#FAF8F4" stroke-width="3" stroke-miterlimit="10"></path>
<path d="M395.011 350.7C410.034 350.7 422.213 362.879 422.213 377.902" stroke="#FAF8F4" stroke-width="3" stroke-miterlimit="10"></path>
<path d="M422.213 405.103L422.213 377.899" stroke="#FAF8F4" stroke-width="3" stroke-miterlimit="10"></path>
<path d="M367.81 405.103L367.81 377.899" stroke="#FAF8F4" stroke-width="3" stroke-miterlimit="10"></path>
<path d="M285.077 441.525L258.996 432.306L285.077 423.087" stroke="#FAF8F4" stroke-width="3" stroke-miterlimit="10"></path>
<path d="M355.996 138.497L382.077 147.716L355.996 156.935" stroke="#FAF8F4" stroke-width="3" stroke-miterlimit="10"></path>
<path d="M757 91.5001L748 104.5L739 91.5001" stroke="#FAF8F4" stroke-width="3" stroke-miterlimit="10"></path>
<path d="M558.227 323.498C543.204 323.498 531.026 335.677 531.026 350.7C531.026 365.723 543.204 377.902 558.227 377.902C573.251 377.902 585.429 365.723 585.429 350.7C585.429 335.677 573.251 323.498 558.227 323.498Z" stroke="#FAF8F4" stroke-width="3" stroke-miterlimit="10"></path>
<circle cx="570.5" cy="585" r="97" stroke="#FAF8F4" stroke-width="3"></circle>
<path d="M474.412 577.968L335.838 660.329C318.369 670.712 297.12 654.62 302.38 634.989L312.641 596.692C318.368 575.321 295.397 557.695 276.236 568.757L209.105 607.515C191.626 617.607 170.669 601.527 175.893 582.031L180.426 565.116C186.282 543.26 162.244 525.596 143.136 537.717L134.587 543.139C117.155 554.195 95.2255 538.082 100.568 518.143L110.655 480.5" stroke="#FAF8F4" stroke-width="3" stroke-miterlimit="10" stroke-linecap="round"></path>
</svg>