<svg width="728" height="285" viewBox="0 0 728 285" fill="none" xmlns="http://www.w3.org/2000/svg">
<path d="M726.494 283.441C615.272 283.441 525.107 193.276 525.107 82.0544C525.107 37.5639 561.174 1.5 605.662 1.5C650.152 1.5 686.216 37.5667 686.216 82.0544C686.216 193.276 596.052 283.441 484.83 283.441C373.608 283.441 283.444 193.276 283.444 82.0544C283.444 37.5639 319.511 1.5 363.998 1.5C408.486 1.5 444.553 37.5667 444.553 82.0544C444.553 193.276 354.388 283.441 243.167 283.441C131.945 283.441 41.7803 193.276 41.7803 82.0544C41.7803 37.5639 77.8471 1.5 122.335 1.5C166.825 1.5 202.889 37.5667 202.889 82.0544C202.889 193.276 112.725 283.441 1.50293 283.441" stroke="#FAF8F4" stroke-width="3" stroke-miterlimit="10" stroke-linecap="round" stroke-linejoin="round"></path>
<path d="M716.424 71.9827L726.493 82.0537L716.424 92.1226" stroke="#FAF8F4" stroke-width="3" stroke-miterlimit="10" stroke-linecap="round" stroke-linejoin="round"></path>
<path d="M11.5686 92.1226L1.5 82.0537L11.5686 71.9827" stroke="#FAF8F4" stroke-width="3" stroke-miterlimit="10" stroke-linecap="round" stroke-linejoin="round"></path>
<path d="M726.493 82.0536H1.5" stroke="#FAF8F4" stroke-width="3" stroke-miterlimit="10" stroke-linecap="round" stroke-linejoin="round" stroke-dasharray="53.7 53.7"></path>
</svg>