<svg width="630" height="229" viewBox="0 0 630 229" fill="none" xmlns="http://www.w3.org/2000/svg">
<path d="M203.726 0H169.842L131.183 108.263H162.634L168.327 91.0772H204.139L209.832 108.263H242.384L203.726 0ZM177.326 64.2411L186.233 37.8646L195.14 64.2411H177.326Z" fill="#EF503A"></path>
<path d="M88.4292 228.511V120.248H121.67V199.837H167.124V228.511H88.3374H88.4292Z" fill="#EF503A"></path>
<path d="M179.28 120.248H260.638V148.922H212.889V160.043H252.006V187.89H212.889V199.837H260.638V228.511H179.28V120.248Z" fill="#EF503A"></path>
<path d="M344.204 228.511H310.32L271.661 120.248H307.014L327.308 183.294L347.969 120.248H382.862L344.204 228.511Z" fill="#EF503A"></path>
<path d="M393.621 120.248H474.979V148.922H427.229V160.043H466.347V187.89H427.229V199.837H474.979V228.511H393.621V120.248Z" fill="#EF503A"></path>
<path d="M393.609 120.071H474.967V148.745H427.218V159.866H466.336V187.713H427.218V199.66H474.967V228.335H393.609V120.071Z" fill="#E02E16" fill-opacity="0.01"></path>
<path d="M487.762 228.511V120.248H521.003V199.837H566.457V228.511H487.67H487.762Z" fill="#EF503A"></path>
<path d="M71.7161 108.263H50.0452L33.1492 46.7793V108.263H0V0H48.3005L61.248 52.5693L74.2873 0H122.037V108.263H88.6121V46.7793L71.7161 108.263Z" fill="#EF503A"></path>
<path d="M439.92 0.248047H521.278V28.9222H473.528V40.0426H512.646V67.8896H473.528V79.8372H521.278V108.511H439.92V0.248047Z" fill="#EF503A"></path>
<path d="M606.4 69.7554C618.981 63.5978 626.235 61.3002 626.235 37.497C626.235 13.6937 609.247 0 581.516 0H533.472V108.263H566.456V74.9939H571.874L590.882 108.171H630L606.4 69.7554ZM579.679 48.6174H566.456V28.3984H579.679C588.494 28.3984 592.443 32.8098 592.443 38.6917C592.443 44.5736 588.586 48.6174 579.679 48.6174Z" fill="#EF503A"></path>
<path d="M290.274 28.6742V108.263H257.033V28.6742H225.509V0H321.798V28.6742H290.274Z" fill="#EF503A"></path>
<path d="M397.235 28.9222V108.511H363.994V28.9222H332.47V0.248047H428.759V28.9222H397.235Z" fill="#EF503A"></path>
</svg>